<svg width="20" height="20" viewBox="0 0 20 20" fill="none" xmlns="http://www.w3.org/2000/svg">
<path fill-rule="evenodd" clip-rule="evenodd" d="M9.99 0C4.47 0 0 4.48 0 10C0 15.52 4.47 20 9.99 20C15.52 20 20 15.52 20 10C20 4.48 15.52 0 9.99 0ZM10 18C5.58004 18 2.00004 14.42 2.00004 10C2.00004 5.57999 5.58004 1.99998 10 1.99998C14.42 1.99998 18 5.57999 18 10C18 14.42 14.42 18 10 18ZM9.00008 5.00003H10.5001V10.25L15.0001 12.9201L14.2501 14.1501L9.00008 11V5.00003Z" fill="black" fill-opacity="0.54"/>
</svg>
