<svg width="22" height="22" viewBox="0 0 22 22" fill="none" xmlns="http://www.w3.org/2000/svg">
<path fill-rule="evenodd" clip-rule="evenodd" d="M3.66671 1.8335H18.3334C19.3459 1.8335 20.1667 2.65431 20.1667 3.66683V18.3335C20.1667 19.346 19.3459 20.1668 18.3334 20.1668H3.66671C2.65419 20.1668 1.83337 19.346 1.83337 18.3335V3.66683C1.83337 2.65431 2.65419 1.8335 3.66671 1.8335ZM3.66671 3.6669V18.3336H18.3334V3.6669H3.66671ZM10.2053 11.0041H11.9167V16.5001H13.75V11.0041H15.5673V9.17079H13.75V8.25009C13.75 7.74383 14.1604 7.33343 14.6667 7.33343H15.5834V5.50009H14.6667C13.1479 5.50009 11.9167 6.73131 11.9167 8.25009V9.17079H10.2053V11.0041Z" fill="white"/>
</svg>
