<svg width="20" height="19" viewBox="0 0 20 19" fill="none" xmlns="http://www.w3.org/2000/svg">
<path fill-rule="evenodd" clip-rule="evenodd" d="M13.3333 1.5835H6.66663C3.9052 1.5835 1.66663 3.71014 1.66663 6.3335V12.6668C1.66663 15.2902 3.9052 17.4168 6.66663 17.4168H13.3333C16.0947 17.4168 18.3333 15.2902 18.3333 12.6668V6.3335C18.3333 3.71014 16.0947 1.5835 13.3333 1.5835ZM3.33329 6.33356C3.33329 4.58466 4.82567 3.1669 6.66662 3.1669H13.3333C15.1742 3.1669 16.6666 4.58466 16.6666 6.33356V12.6669C16.6666 14.4158 15.1742 15.8336 13.3333 15.8336H6.66662C4.82567 15.8336 3.33329 14.4158 3.33329 12.6669V6.33356ZM9.99995 13.4586C7.69877 13.4586 5.83329 11.6864 5.83329 9.50023C5.83329 7.3141 7.69877 5.5419 9.99995 5.5419C12.3011 5.5419 14.1666 7.3141 14.1666 9.50023C14.1666 11.6864 12.3011 13.4586 9.99995 13.4586ZM9.99996 11.8751C11.3807 11.8751 12.5 10.8118 12.5 9.5001C12.5 8.18842 11.3807 7.1251 9.99996 7.1251C8.61925 7.1251 7.49996 8.18842 7.49996 9.5001C7.49996 10.8118 8.61925 11.8751 9.99996 11.8751ZM15 5.54176C15 5.97899 14.6269 6.33343 14.1666 6.33343C13.7064 6.33343 13.3333 5.97899 13.3333 5.54176C13.3333 5.10454 13.7064 4.7501 14.1666 4.7501C14.6269 4.7501 15 5.10454 15 5.54176Z" fill="white"/>
</svg>
