<svg width="18" height="15" viewBox="0 0 18 15" fill="none" xmlns="http://www.w3.org/2000/svg">
<path fill-rule="evenodd" clip-rule="evenodd" d="M11.0219 10.912C9.91435 11.5609 8.57187 11.9408 7.125 11.9408C3.32804 11.9408 0.25 9.32445 0.25 6.09704C0.25 2.86963 3.32804 0.253296 7.125 0.253296C10.922 0.253296 14 2.86963 14 6.09704C14 7.32688 13.553 8.46799 12.7897 9.40941L17.3839 13.3145L15.6161 14.8171L11.0219 10.912ZM7.125 9.94733C9.54125 9.94733 11.5 8.24348 11.5 6.14167C11.5 4.03986 9.54125 2.33601 7.125 2.33601C4.70875 2.33601 2.75 4.03986 2.75 6.14167C2.75 8.24348 4.70875 9.94733 7.125 9.94733Z" fill="black"/>
</svg>
