<svg width="16" height="15" viewBox="0 0 16 15" fill="none" xmlns="http://www.w3.org/2000/svg">
<path fill-rule="evenodd" clip-rule="evenodd" d="M14.8397 2.3812L15.9007 2.50512L15.4238 3.461C15.1912 3.92714 14.9583 4.39329 14.7253 4.85943C14.6976 4.95816 14.6491 5.04472 14.5772 5.1574C14.5472 5.20449 14.4447 5.35427 14.4399 5.36146C14.4128 5.40206 14.3928 5.43408 14.3784 5.45974V7.25114C14.3784 11.8351 9.94214 14.7481 5.75266 14.7481C4.89538 14.7481 4.24405 14.707 3.49823 14.5442C2.27086 14.2764 1.35746 13.744 0.93948 12.8135L0.509158 11.8555L1.55494 11.7593C2.501 11.6723 3.32127 11.4921 3.95119 11.2507C2.22183 10.9726 1.2527 10.2131 1.2527 8.78666V8.03666H2.0027C2.16748 8.03666 2.31607 8.02329 2.44891 7.99876C1.151 7.22273 0.500916 5.97784 0.500916 4.25114C0.500774 4.17755 0.500774 4.17755 0.500332 4.09886C0.495456 3.22852 0.542204 2.76347 0.780461 2.16994C0.933157 1.78956 1.15387 1.43741 1.45092 1.11475L2.01688 0.5L2.56713 1.12885C4.38045 3.20121 6.17296 4.45846 8.00313 4.61054C8.01095 2.69829 9.45615 1.25114 11.3783 1.25114C12.2743 1.25114 13.0871 1.59126 13.7259 2.20454C14.0755 2.27638 14.4467 2.33532 14.8397 2.3812ZM13.1815 3.62161L12.9516 3.56955L12.7928 3.39531C12.4089 2.97401 11.927 2.75125 11.3783 2.75125C10.281 2.75125 9.50311 3.53303 9.50311 4.62625C9.50311 4.80491 9.49849 4.91717 9.47623 5.06471C9.38742 5.65348 9.05719 6.12625 8.37809 6.12625C6.12956 6.12625 4.10103 4.92167 2.12293 2.86431C2.02095 3.17431 1.99697 3.49296 2.00032 4.09056C2.00077 4.17048 2.00077 4.17048 2.00093 4.25125C2.00093 5.78725 2.62321 6.62743 4.09661 7.09574L4.61943 7.26192V7.81051C4.61943 8.47575 3.98918 9.10196 3.06702 9.38245C3.48975 9.70317 4.35426 9.87625 5.75293 9.87625H6.50293V10.6262C6.50293 11.7008 5.26822 12.5421 3.40307 12.9815C4.01135 13.1679 4.82125 13.2482 5.75267 13.2482C9.21348 13.2482 12.8784 10.8417 12.8784 7.25125V5.37625C12.8784 5.15591 12.9423 4.96465 13.0484 4.7658C13.0899 4.68805 13.1355 4.61392 13.1919 4.52938C13.2025 4.51347 13.2419 4.4558 13.2732 4.4097L13.3326 4.29082C13.4289 4.09819 13.5252 3.90556 13.6214 3.71293C13.4719 3.6846 13.3252 3.65416 13.1815 3.62161Z" fill="white"/>
</svg>
